<?xml version="1.0" encoding="utf-8"?>
<!-- Generator: Adobe Illustrator 18.1.1, SVG Export Plug-In . SVG Version: 6.00 Build 0)  -->
<svg version="1.1" id="Layer_1" xmlns="http://www.w3.org/2000/svg" xmlns:xlink="http://www.w3.org/1999/xlink" x="0px" y="0px"
	 viewBox="0 0 360 360" enable-background="new 0 0 360 360" xml:space="preserve">
<g>
	<path fill="#FDFDFD" d="M7.3,359c0-114.5,0.1-228.9-0.2-343.4c0-6.8,1.3-8.2,8.2-8.2c111.8,0.3,223.6,0.3,335.4,0
		c6.8,0,8.2,1.3,8.2,8.2c-0.3,111.8-0.3,223.6,0,335.4c0,6.8-1.3,8.2-8.2,8.2C236.2,358.9,121.7,359,7.3,359z M180,124
		c-1-1.3-2.2-2.5-3-4c-11.8-20.8-23.7-41.5-35.1-62.6c-3.2-6-5.8-6.3-11.2-2.8c-10.8,7.1-21.8,14-33.2,20.1
		c-6.5,3.5-6.2,6.4-2.8,12.1c11.6,19.8,22.5,40,34,59.8c4,6.8,2.3,8.2-5,8.1c-22.3-0.3-44.5,0.2-66.8-0.3c-7.1-0.1-9,2.2-8.8,9
		c0.5,12.6,0.4,25.3,0,37.9c-0.2,6,1,8.9,8,8.7c21.9-0.4,43.9-0.2,65.8-0.2c10.9,0,10.9,0.1,5.4,10c-10.9,19.4-21.5,39-32.9,58.1
		c-3.7,6.2-2.6,8.7,3.4,11.9c10.6,5.5,21.1,11.4,30.8,18.3c7.6,5.3,10.4,3.2,14.5-4.1c12-21.4,22.9-43.4,36.6-63.8
		c12.8,22.6,25.6,45.1,38.2,67.7c2.3,4.2,4.2,4.9,8.4,2.3c8.1-5.2,16.5-9.9,24.9-14.7c17.3-10.1,17.3-10.1,7.1-28
		c-10.6-18.7-21-37.4-31.6-56.2c4-2.4,7.4-1.4,10.6-1.4c20.9-0.1,41.9-0.6,62.8,0.2c9.3,0.3,11.2-2.8,10.7-11.2
		c-0.7-11.9-0.5-23.9-0.1-35.9c0.2-6.4-1.7-8.6-8.3-8.5c-22.3,0.4-44.6,0.2-66.8,0.1c-2.7,0-5.9,1.3-8.7-1.9
		c12.3-21.9,24.5-43.9,37.2-65.7c3.3-5.6,3.6-8.9-2.9-12.4c-11.4-6.1-22.6-12.8-33.2-20.1c-6.1-4.1-8.3-2-11.1,3.3
		C204.8,80,192.4,102,180,124z"/>
	<path fill="#624EA0" d="M180,240.4c-13.7,20.4-24.7,42.4-36.6,63.8c-4.1,7.3-7,9.4-14.5,4.1c-9.7-6.9-20.3-12.7-30.8-18.3
		c-6-3.2-7.1-5.8-3.4-11.9c11.4-19.1,22-38.7,32.9-58.1c5.5-9.9,5.5-9.9-5.4-10c-21.9,0-43.9-0.3-65.8,0.2c-7.1,0.1-8.2-2.7-8-8.7
		c0.3-12.6,0.5-25.3,0-37.9c-0.3-6.8,1.6-9.2,8.8-9c22.3,0.4,44.5,0,66.8,0.3c7.3,0.1,8.9-1.3,5-8.1c-11.5-19.8-22.4-40-34-59.8
		c-3.3-5.7-3.7-8.6,2.8-12.1c11.4-6.1,22.4-13,33.2-20.1c5.4-3.6,8-3.2,11.2,2.8c11.4,21,23.3,41.8,35.1,62.6c0.8,1.4,2,2.6,3,4
		c9,16.5,17.7,33.3,27.2,49.6c3.7,6.3,3.4,11.1-0.1,17.3C197.7,207.2,187.5,223,180,240.4z"/>
	<path fill="#98C93F" d="M180,240.4c7.5-17.4,17.7-33.2,27.1-49.6c3.5-6.2,3.8-11,0.1-17.3c-9.5-16.3-18.2-33-27.2-49.6
		c12.3-22,24.8-44,36.9-66.2c2.9-5.2,5.1-7.4,11.1-3.3c10.7,7.3,21.8,14,33.2,20.1c6.5,3.5,6.2,6.8,2.9,12.4
		c-12.6,21.8-24.8,43.9-37.2,65.7c2.8,3.2,6,1.9,8.7,1.9c22.3,0.1,44.6,0.3,66.8-0.1c6.6-0.1,8.6,2.1,8.3,8.5
		c-0.4,12-0.6,24,0.1,35.9c0.5,8.5-1.5,11.6-10.7,11.2c-20.9-0.8-41.9-0.3-62.8-0.2c-3.2,0-6.6-0.9-10.6,1.4
		c10.6,18.8,21,37.6,31.6,56.2c10.1,17.9,10.2,17.8-7.1,28c-8.3,4.9-16.7,9.6-24.9,14.7c-4.1,2.6-6,1.9-8.4-2.3
		C205.6,285.5,192.7,263,180,240.4z"/>
</g>
</svg>
