<?xml version="1.0" encoding="utf-8"?>
<!-- Generator: Adobe Illustrator 19.0.0, SVG Export Plug-In . SVG Version: 6.00 Build 0)  -->
<!DOCTYPE svg PUBLIC "-//W3C//DTD SVG 1.1//EN" "http://www.w3.org/Graphics/SVG/1.1/DTD/svg11.dtd">
<svg version="1.1" xmlns="http://www.w3.org/2000/svg" xmlns:xlink="http://www.w3.org/1999/xlink" x="0px" y="0px"
	 viewBox="0 0 360 360" enable-background="new 0 0 360 360" xml:space="preserve">
<g id="Layer_1">
</g>
<g id="Layer_2">
	<g>
		<path fill="none" stroke="#231F20" stroke-width="2" stroke-miterlimit="10" d="M196.3,126c0,3.7,0,6.4,0,9.1
			c0,34.4,0.1,68.8-0.1,103.2c0,5.7,1.7,7.7,7.4,7.5c11.7-0.4,23.4,0,35.1-0.4c13.4-0.4,22.3-7.5,27.1-19.8
			c6.4-16.6,6.7-34.1,6.2-51.5c-0.3-9.8-1.5-19.7-3.7-29.2c-4.2-17.7-14.2-25.8-32.2-26.1c-28.4-0.4-56.9,0-85.3-0.3
			c-6.1,0-5.8,3.5-5.8,7.6c0,45.9,0,91.8,0,137.7c0,9.6,0,9.6-9.3,9.6c-8.5,0-17-0.3-25.5,0.1c-5.8,0.3-7.4-1.8-7.4-7.4
			c0.2-46.1,0.1-92.2,0.1-138.3c0-9,0-9.1-9-9.1c-14.5,0-28.9-0.1-43.4,0c-4.9,0.1-6.7-1.5-6.8-6.7c-0.2-21-0.3-21,20.6-21
			c60.3,0,120.7-0.1,181,0.1c7.1,0,14.3,0.5,21.2,1.8c27.2,5.2,42,23.2,47.5,49.1c5.6,26.8,5.6,53.9-0.7,80.6
			c-7.9,33.1-26.5,49-60.7,50.3c-30.9,1.2-61.9,0.4-92.9,0.6c-4.3,0-5.5-1.8-5.5-5.8c0.1-45.4,0-90.9,0.2-136.3c0-1.8,2.3-5,3.6-5.1
			C170.5,125.8,183.1,126,196.3,126z"/>
	</g>
</g>
</svg>
