<?xml version="1.0" encoding="utf-8"?>
<!-- Generator: Adobe Illustrator 18.1.1, SVG Export Plug-In . SVG Version: 6.00 Build 0)  -->
<svg version="1.1" id="Layer_1" xmlns="http://www.w3.org/2000/svg" xmlns:xlink="http://www.w3.org/1999/xlink" x="0px" y="0px"
	 viewBox="0 0 360 360" enable-background="new 0 0 360 360" xml:space="preserve">
<g>
	<path fill="#FEFEFE" d="M180,354.4c57.2,0,114.3,0,171.5,0.1c2.4,0,2.9-0.6,2.9-2.9c-0.1-114.2-0.1-228.5,0-342.7
		c0-2.2-0.4-2.8-2.7-2.8C237.3,6.1,123,6.1,8.7,6C6.4,6,5.9,6.7,5.9,8.9C6,123.1,6,237.3,5.9,351.5c0,2.3,0.5,3,2.9,2.9
		C65.9,354.4,122.9,354.4,180,354.4z"/>
	<path fill="#009CDB" d="M180,354.4c-57.1,0-114.2,0-171.2,0.1c-2.4,0-2.9-0.6-2.9-2.9C6,237.3,6,123.1,5.9,8.9C5.9,6.7,6.4,6,8.7,6
		C123,6.1,237.3,6.1,351.6,6c2.3,0,2.7,0.7,2.7,2.8c-0.1,114.2-0.1,228.5,0,342.7c0,2.3-0.5,2.9-2.9,2.9
		C294.3,354.4,237.2,354.4,180,354.4z M98.3,146c-0.2-0.1-0.3-0.3-0.5-0.4c0.5-1.3,1.1-2.6,1.6-3.8c4.8-11.9,9.4-23.8,13.1-36.1
		c0.7-2.4,0.4-2.9-2-2.9c-4.4,0-8.8,0-13.2,0c-1,0-1.6,0.3-1.5,1.4c0.1,0.9-0.3,2,1.3,2.1c1,0,1.9,0.3,2.9,0.4
		c1.9,0.2,2.5,1.3,2.1,3.1c-0.4,1.4-0.8,2.8-1.3,4.2c-6.6,19.9-14.3,39.4-21.6,59c-2.2,5.9-1.7,6.4,4.6,5.9c1.7-0.1,2.6-0.8,3.1-2.5
		c0.8-2.6,1.8-5.2,3-7.8c4.3-9.6,9.7-18.5,17.5-25.8c1.6-1.5,3.3-2.8,5.3-3.5c1.4-0.5,3-0.8,4.2,0.2c1.3,1,1.1,2.6,0.8,4.1
		c-0.5,2.3-1.1,4.6-2.1,6.8c-2.9,6.8-5.8,13.5-8.6,20.3c-0.7,1.7-1.3,3.5-1.3,5.4c0,2.9,1.6,4.4,4.5,4.1c2.4-0.3,4.6-1,6.7-2.2
		c4.4-2.7,7.6-6.6,10.9-10.5c1.2-1.4-0.2-2-0.8-2.8c-0.8-1-1.4-0.2-2,0.4c-1.8,1.7-3.6,3.4-5.4,5c-0.6,0.6-1.5,1.5-2.3,1
		c-0.9-0.6-0.1-1.7,0.2-2.4c2.4-6,5-11.9,7-18c1.4-4.3,2.6-8.6,2.3-13.2c-0.4-5-3.8-7.8-8.8-7.2c-4.2,0.5-7.6,2.8-10.7,5.5
		C103.7,138.6,101.1,142.4,98.3,146z M207.1,212.3c0.5,1.3,0.8,2,1.1,2.6c3.4,9.4,6.9,18.7,10.2,28.1c0.5,1.5,1.5,1.4,2.6,1.5
		c1.2,0.1,1.7-0.4,2-1.5c1.5-5.1,3.1-10.2,4.7-15.3c2.5-7.8,4.9-15.6,7.8-23.3c0.9-2.3,2.3-4,4.9-4c1,0,1.5-0.3,1.5-1.4
		c0-1.3-0.7-1.4-1.7-1.4c-4.5,0-9,0-13.5,0c-1,0-1.8,0-1.8,1.3c0,1.3,0.7,1.4,1.7,1.5c3.7,0.2,4.4,1,3.5,4.5
		c-2.2,8.6-4.5,17.1-6.9,26.2c-0.4-1-0.6-1.5-0.8-2c-3.6-9.8-7.2-19.5-10.7-29.3c-0.5-1.3-1-1.8-2.4-1.8c-1.5,0-1.7,0.9-2,2
		c-2.5,7.9-5,15.8-7.5,23.6c-0.7,2.2-1.4,4.4-2.4,7.3c-2.7-9.1-5.2-17.5-7.7-25.8c-1.2-3.9-1-4.2,3.1-4.7c0.9-0.1,1.3-0.4,1.3-1.3
		c0-0.8-0.1-1.5-1.1-1.5c-5.8,0-11.6,0-17.4,0c-0.9,0-1.2,0.4-1.1,1.2c0.1,0.6-0.2,1.5,0.8,1.5c4.3,0.2,5.1,3.5,6.1,6.6
		c3.7,11.8,7.3,23.7,10.9,35.6c0.5,1.6,1.1,2.2,2.9,2.1c1.4-0.1,1.7-0.8,2.1-1.9C200.2,232.8,203.5,222.9,207.1,212.3z M160.6,244
		c3,0,6,0,9.1,0c0.8,0,1.6,0.1,1.7-1.2c0-1.1-0.3-1.6-1.5-1.7c-3.8-0.5-4.4-1.2-4.4-4.9c0-10.4,0-20.8,0-31.1c0-3.3,1-4.4,4.3-4.6
		c1-0.1,1.7-0.2,1.7-1.5c0-1.3-0.7-1.4-1.7-1.4c-5.6,0-11.3,0-16.9,0c-0.9,0-1.8-0.1-1.9,1.3c-0.1,1.5,0.7,1.5,1.8,1.6
		c2.4,0.1,3.9,1.3,3.9,3.7c0.1,4,0.1,8,0.2,12c0,1-0.3,1.4-1.4,1.4c-6,0-11.9,0-17.9,0c-1,0-1.5-0.2-1.5-1.3
		c0.1-3.6-0.3-7.2,0.1-10.8c0.4-3.5-0.1-4.7,4.7-5.1c1.1-0.1,1.1-0.7,1.1-1.5c0.1-1.1-0.5-1.4-1.5-1.4c-5.9,0-11.8,0-17.7,0
		c-1,0-1.5,0.2-1.5,1.3c0,1,0.3,1.4,1.4,1.5c4,0.4,4.9,1.1,5,5.1c0.1,10.1,0.1,20.3,0,30.4c-0.1,3.9-1.1,4.9-4.3,5.2
		c-1,0.1-2,0-2,1.5c0,1.8,1.2,1.4,2.2,1.4c5.5,0,11,0,16.4,0c0.9,0,2.3,0.6,2.3-1.3c0.1-1.7-1.1-1.6-2.1-1.6c-2.3,0-3.5-1.1-3.8-3.5
		c-0.7-5-0.1-10.1-0.3-15.2c0-1.2,0.8-1,1.5-1c5.9,0,11.8,0,17.7,0c1.4,0,1.6,0.6,1.6,1.8c-0.1,4.1,0,8.2-0.1,12.3
		c-0.1,4.8-0.3,4.9-5,5.7c-1,0.2-1.4,0.5-1.4,1.5c0,1.2,0.6,1.3,1.5,1.3C154.7,244,157.7,244,160.6,244z M158.1,166.4
		c-0.5,1.6-1.1,3.2-1.5,4.8c-0.6,2.8-1.6,5.9,1.2,7.9c2.7,2,5.7,0.6,8.2-0.9c4.6-2.6,7.6-6.8,10.6-11.1c1-1.4-0.3-2.1-1-2.8
		c-0.9-0.9-1.4,0-1.9,0.7c-1.7,1.9-3.3,3.9-5,5.7c-0.7,0.8-1.6,1.7-2.7,1.1c-1.1-0.7-0.3-1.8-0.1-2.7c2-6.9,4.7-13.5,7.2-20.3
		c1.9-5,3.7-10.1,5.6-15.1c1-2.8-1.7-3.1-3-4.2c-1.3-1-2.5-0.5-3.2,0.9c-0.8,1.5-2.1,1.4-3.4,1c-7.3-1.7-13.8,0-19.6,4.4
		c-9.3,7-14.3,16.7-17.3,27.7c-0.9,3.4-1.4,6.9-0.4,10.4c1.1,3.8,3.6,5.7,7.4,5.8c4.8,0.1,8.4-2.2,11.7-5.2
		C153.5,172.1,155.6,169,158.1,166.4z M308.2,218.3c1-0.5,1.7-0.8,2.5-1.1c4.8-2.5,6.7-6.4,5.8-11.5c-0.7-3.9-4.5-7.2-9.3-7.7
		c-7.9-0.8-15.8-0.2-23.7-0.4c-0.9,0-1.6,0.1-1.6,1.3c-0.1,1.2,0.5,1.5,1.6,1.6c2.2,0.1,3.6,1,3.8,3.5c0.8,10.8,0.4,21.7,0.2,32.5
		c-0.1,3.9-1,4.4-4.2,4.7c-1.1,0.1-1.9,0.2-1.9,1.6c0.1,1.6,1.2,1.2,2.1,1.2c5.8,0,11.6,0.2,17.4,0c5-0.2,9.9-0.9,14-4.2
		c6.3-5,6.3-15.3-1.5-19.5C311.8,219.4,310.1,218.9,308.2,218.3z M242.9,102.9c-1.1,0-2.3,0-3.4,0c-1.1,0-2.3,0-3.4,0
		c-1,0-1.3,0.3-1.5,1.4c-0.5,2.4,1.2,2.1,2.4,2.2c4,0.6,4.3,1,3.1,4.9c-0.2,0.7-0.5,1.4-0.7,2.1c-5.1,13.1-10.2,26.1-15.2,39.2
		c-2.4,6.4-5,12.8-6.3,19.5c-0.5,2.5-0.2,5,2,6.7c2.2,1.7,4.8,1.5,7.2,0.4c5.6-2.5,9.1-7.3,12.7-12c1-1.3-0.5-2.1-1.2-2.8
		c-0.8-0.9-1.3,0.1-1.7,0.6c-1.9,1.9-3.7,3.9-5.7,5.8c-0.7,0.7-1.7,1.6-2.8,1c-1.2-0.7-0.5-1.9-0.3-2.9c2.6-9.6,6.3-18.9,9.8-28.1
		c4.3-11.4,8.7-22.8,13.1-34.2c1.2-3.1,0.8-3.6-2.4-3.6C246.7,102.8,244.8,102.9,242.9,102.9z M261.5,150.8c3.2,0.6,5.3,0.2,7.4-0.1
		c5.6-0.8,11.1-2.2,15.4-6.2c2.4-2.2,3.8-4.9,2.9-8.3c-1-3.5-3.6-5.3-7.1-6c-3.5-0.7-6.8-0.1-10.1,1.1c-5.9,2.3-10.9,5.9-15.1,10.6
		c-6.6,7.2-11.4,15.3-11.1,25.6c0.3,7.8,6.7,13.4,14.4,12.3c7.2-1,12.7-5.1,17.8-10c1-1,1.1-1.8,0.1-2.9c-1.1-1.2-1.8-0.5-2.7,0.1
		c-2.9,2.1-5.8,4.3-9.2,5.5c-6,2.1-10.8-1.3-10.8-7.6c0-3.9,1.4-7.3,3.2-10.7C258.1,152,259.4,149.9,261.5,150.8z M52,163.1
		c2.2-10.5,8-20.6,18.3-27.7c2.5-1.7,5-1.1,7.3,1.2c1.2,1.2,2.3,2.6,3.5,3.8c1.3,1.2,2.8,1.8,4.4,0.7c1.6-1,2-2.6,1.5-4.5
		c-1.4-4.7-5.8-7.2-11.7-6.6c-8,0.9-14.6,4.6-20.4,9.9c-7.9,7.2-12.9,15.7-12.2,26.9c0.4,6.7,4.8,12.2,10.7,12.9
		c9.3,1.1,16.1-3.5,21.8-10.2c1-1.2,0.1-1.8-0.6-2.7c-0.9-1-1.5-0.5-2.2,0.2c-2.6,2.3-5.3,4.4-8.5,5.8
		C57.1,175.9,51.9,172.4,52,163.1z M269.3,243.9c2.5,0,4.9,0,7.4,0c0.9,0,2.3,0.6,2.3-1.2c0.1-1.5-1-1.4-2-1.5
		c-1.6-0.2-2.8-1-3.5-2.4c-0.8-1.5-1.5-3.1-2.1-4.7c-4.3-11.7-8.6-23.4-13-35.1c-0.3-0.8-0.3-2.1-1.8-1.8c-1.2,0.2-2.3,0.2-2.8,1.7
		c-1.5,4.3-3.2,8.5-4.9,12.8c-3.3,8.4-6.5,16.7-9.8,25c-0.9,2.3-2.3,4.2-5.1,4.3c-1.2,0-1.5,0.7-1.4,1.8c0.1,1.4,1.1,1,1.8,1
		c4.1,0,8.2,0,12.3,0c0.9,0,2.1,0.4,2.1-1.3c0-1.5-1.1-1.4-2-1.5c-2.8-0.4-3.5-1.2-2.6-3.9c0.8-2.6,1.8-5.2,2.7-7.9
		c0.4-1.2,1-1.7,2.3-1.6c3.1,0.1,6.2,0.1,9.3,0c1.2,0,1.9,0.3,2.4,1.5c0.9,2.6,2,5.2,2.9,7.8c1.1,3.1,0.9,3.5-2.3,4.1
		c-0.9,0.2-1.5,0.4-1.5,1.5c0,1.2,0.7,1.3,1.6,1.3C264.1,243.9,266.7,243.9,269.3,243.9z M85.4,220.1c-0.1-3.1,0.3-6.2,1.4-9.1
		c3-8.2,8.1-10.8,14.7-11.1c6.5-0.2,11,2.9,12.8,9.4c0.4,1.5,1.4,0.8,2.1,0.7c1.2,0,0.8-1,0.7-1.7c-0.2-2.2-0.7-4.3-0.8-6.5
		c-0.1-2.5-0.8-3.8-3.6-4.4c-8.8-1.8-17.3-1.8-25.3,2.8c-9.3,5.4-12.6,13.9-11.8,24.2c0.7,8.8,7.1,16.1,16.1,18.9
		c7.5,2.4,14.9,1.5,22.3-0.4c1.1-0.3,1.4-1,1.7-1.8c0.9-3,1.8-6.1,2.7-9.1c0.2-0.7,0.8-1.5-0.4-1.8c-0.8-0.2-1.7-0.5-2.3,0.7
		c-0.6,1.3-1.4,2.6-2.2,3.8c-5.1,8-15.6,9-22.2,2.3C86.7,232.4,85.5,226.5,85.4,220.1z M70.7,230.3c-0.2-0.9,0.1-2.1-0.3-3.3
		c-1.5-5.5-5.7-8.3-10.5-10.4c-2.6-1.2-5.2-2.3-7.3-4.3c-1.7-1.7-2.8-3.6-2.3-6.1c0.7-3.8,2.3-5.5,6-6c3.2-0.4,5.7,1,7.5,3.6
		c0.8,1.3,1.5,2.7,1.9,4.2c0.4,1.4,1.2,0.9,2.1,0.9c1.1,0,1.1-0.6,1-1.4c-0.4-2.7-0.7-5.3-1-8c-0.1-0.9-0.8-1-1.4-1.2
		c-4.2-1.4-8.5-2.3-12.9-1.1c-5.5,1.4-9.4,4.7-10.5,10.4c-1.1,5.4,0.8,9.8,5.2,13.1c2.3,1.7,4.8,3,7.4,4.3c2,1,3.9,2.1,5.4,3.8
		c4,4.5,1.8,12-3.9,13c-3.8,0.7-6.8-1.3-9.2-4.1c-1.6-1.8-2.8-4-3.7-6.3c-0.4-1.1-1.2-1-2-0.6c-0.6,0.3-1.3,0.4-1.1,1.5
		c0.7,3,1.2,6,1.7,9.1c0.1,0.8,0.5,1.3,1.3,1.6c3.8,1.5,7.7,2.6,11.9,2.4C64.7,244.6,70.7,238.7,70.7,230.3z M200.3,150.8
		c1.1-4.8,2.2-9.7,3.2-14.5c0.4-1.8,0.7-3.9-1-5.3c-1.7-1.4-3.8-1.1-5.6-0.2c-5.4,2.6-9.2,7-12.5,11.8c-0.9,1.3,0.4,1.7,1,2.4
		c0.8,0.8,1.3,0.2,1.8-0.4c1.3-1.5,2.5-3,3.8-4.4c1.1-1.1,2.3-3,3.9-2.1c1.7,0.9,1,3.1,0.6,4.7c-1.8,8.4-4.9,16.4-7.8,24.4
		c-1.1,3-2.2,6-3.1,9c-0.3,1-0.7,2.2,0.7,2.7c2.8,1.1,5.9-0.2,7.1-3c4.2-9.6,8.9-18.9,14-28c2-3.5,4.1-6.9,7.2-9.5
		c2.8-2.3,3.5-2.3,6.1,0.3c1.7,1.7,3.6,1.7,5.1,0c1.5-1.7,1.9-4.8,0.9-6.7c-1.3-2.3-3.4-2.3-5.6-2c-5.2,0.7-8.6,4-11.6,7.9
		C205.3,141.9,203,146.5,200.3,150.8z M310.1,129.9c-7,0.6-12,4.9-15.5,11.2c-3.2,5.7-3.5,11.5,0.6,17c1.8,2.4,3.7,4.8,5.3,7.4
		c2.3,3.9,0.2,8-4.2,8.9c-3.1,0.6-5.6-0.4-7.9-2.4c-1.3-1-2.5-2.2-3.8-3.1c-1.2-0.8-2.4-1-3.4,0.5c-1.6,2.7-1,5.9,1.5,7.8
		c1.6,1.3,3.5,2.1,5.5,2.4c5.4,0.8,9.9-1.2,14-4.4c7-5.5,8.2-12.6,3.3-20c-1.8-2.8-3.9-5.4-5.6-8.3c-1.8-3-1.4-6.5,0.5-8.4
		c1.8-1.9,4.3-2,7.7-0.5c1.3,0.6,2.5,1.2,3.9,1.4c2.5,0.3,4.9-1.2,5.5-3.4c0.6-2.2-0.5-4.2-2.9-5.3C313.3,130.2,312,130,310.1,129.9
		z"/>
	<path fill="#F8FBFC" d="M98.3,146c2.8-3.6,5.4-7.4,8.8-10.4c3.1-2.8,6.5-5,10.7-5.5c5-0.6,8.4,2.2,8.8,7.2
		c0.4,4.6-0.9,8.9-2.3,13.2c-2,6.2-4.6,12-7,18c-0.3,0.8-1.2,1.8-0.2,2.4c0.8,0.6,1.7-0.4,2.3-1c1.8-1.6,3.6-3.3,5.4-5
		c0.6-0.5,1.2-1.4,2-0.4c0.6,0.8,2,1.4,0.8,2.8c-3.3,3.9-6.5,7.8-10.9,10.5c-2.1,1.3-4.3,2-6.7,2.2c-2.9,0.3-4.4-1.2-4.5-4.1
		c0-1.9,0.6-3.7,1.3-5.4c2.9-6.8,5.8-13.5,8.6-20.3c0.9-2.2,1.6-4.4,2.1-6.8c0.3-1.5,0.5-3-0.8-4.1c-1.3-1-2.8-0.7-4.2-0.2
		c-2,0.7-3.7,2-5.3,3.5c-7.8,7.3-13.1,16.2-17.5,25.8c-1.1,2.5-2.1,5.1-3,7.8c-0.5,1.7-1.5,2.4-3.1,2.5c-6.3,0.5-6.8,0-4.6-5.9
		c7.4-19.6,15-39.1,21.6-59c0.5-1.4,0.9-2.8,1.3-4.2c0.5-1.8-0.2-2.9-2.1-3.1c-1-0.1-1.9-0.4-2.9-0.4c-1.6,0-1.2-1.1-1.3-2.1
		c-0.1-1.1,0.5-1.4,1.5-1.4c4.4,0,8.8,0,13.2,0c2.3,0,2.7,0.5,2,2.9c-3.7,12.3-8.2,24.2-13.1,36.1c-0.5,1.3-1.1,2.6-1.6,3.8
		c-0.1,0.2-0.7,0.3-0.3,0.7C97.8,146.5,98.1,146.4,98.3,146z"/>
	<path fill="#F8FBFC" d="M207.1,212.3c-3.5,10.6-6.9,20.5-10.1,30.4c-0.4,1.1-0.7,1.8-2.1,1.9c-1.7,0.1-2.4-0.6-2.9-2.1
		c-3.6-11.9-7.2-23.7-10.9-35.6c-1-3.1-1.8-6.4-6.1-6.6c-1,0-0.7-0.9-0.8-1.5c-0.1-0.8,0.2-1.2,1.1-1.2c5.8,0,11.6,0,17.4,0
		c1.1,0,1.1,0.7,1.1,1.5c0,0.9-0.3,1.2-1.3,1.3c-4.1,0.5-4.3,0.8-3.1,4.7c2.5,8.4,5,16.7,7.7,25.8c1-2.9,1.7-5.1,2.4-7.3
		c2.5-7.9,5-15.8,7.5-23.6c0.3-1,0.6-1.9,2-2c1.4,0,2,0.5,2.4,1.8c3.5,9.8,7.1,19.5,10.7,29.3c0.2,0.5,0.4,1,0.8,2
		c2.4-9,4.7-17.6,6.9-26.2c0.9-3.5,0.3-4.3-3.5-4.5c-1-0.1-1.7-0.2-1.7-1.5c0-1.3,0.9-1.3,1.8-1.3c4.5,0,9,0,13.5,0
		c1,0,1.8,0.1,1.7,1.4c0,1.1-0.5,1.4-1.5,1.4c-2.7,0-4.1,1.7-4.9,4c-2.9,7.7-5.3,15.5-7.8,23.3c-1.6,5.1-3.2,10.2-4.7,15.3
		c-0.3,1.2-0.8,1.6-2,1.5c-1.2-0.1-2.1,0.1-2.6-1.5c-3.3-9.4-6.8-18.8-10.2-28.1C207.9,214.3,207.6,213.7,207.1,212.3z"/>
	<path fill="#F8FBFC" d="M160.6,244c-2.9,0-5.9,0-8.8,0c-0.9,0-1.5-0.2-1.5-1.3c0-1,0.4-1.4,1.4-1.5c4.7-0.7,4.9-0.9,5-5.7
		c0.1-4.1,0-8.2,0.1-12.3c0-1.1-0.1-1.8-1.6-1.8c-5.9,0.1-11.8,0-17.7,0c-0.7,0-1.6-0.2-1.5,1c0.2,5-0.3,10.1,0.3,15.2
		c0.3,2.4,1.5,3.5,3.8,3.5c1.1,0,2.2-0.1,2.1,1.6c-0.1,1.8-1.4,1.2-2.3,1.3c-5.5,0-10.9,0-16.4,0c-1,0-2.2,0.4-2.2-1.4
		c0-1.5,1-1.4,2-1.5c3.3-0.3,4.3-1.3,4.3-5.2c0.1-10.1,0.1-20.3,0-30.4c-0.1-4-1-4.7-5-5.1c-1.1-0.1-1.3-0.5-1.4-1.5
		c0-1.1,0.5-1.4,1.5-1.3c5.9,0,11.8,0,17.7,0c1,0,1.6,0.2,1.5,1.4c0,0.8-0.1,1.4-1.1,1.5c-4.7,0.4-4.2,1.6-4.7,5.1
		c-0.4,3.5-0.1,7.2-0.1,10.8c0,1.1,0.5,1.3,1.5,1.3c6,0,11.9,0,17.9,0c1.1,0,1.4-0.4,1.4-1.4c-0.1-4-0.1-8-0.2-12
		c-0.1-2.5-1.5-3.7-3.9-3.7c-1.1,0-1.9-0.1-1.8-1.6c0.1-1.4,1-1.3,1.9-1.3c5.6,0,11.3,0,16.9,0c1,0,1.7,0,1.7,1.4
		c0,1.3-0.6,1.4-1.7,1.5c-3.3,0.3-4.3,1.3-4.3,4.6c0,10.4,0,20.8,0,31.1c0,3.8,0.7,4.5,4.4,4.9c1.2,0.1,1.5,0.6,1.5,1.7
		c0,1.3-0.8,1.2-1.7,1.2C166.6,244,163.6,244,160.6,244z"/>
	<path fill="#F8FBFC" d="M158.1,166.4c-2.5,2.6-4.6,5.7-7.3,8.2c-3.3,3.1-7,5.4-11.7,5.2c-3.8-0.1-6.4-2-7.4-5.8
		c-1-3.5-0.5-7,0.4-10.4c3-11,8-20.7,17.3-27.7c5.8-4.4,12.4-6.1,19.6-4.4c1.3,0.3,2.6,0.4,3.4-1c0.8-1.4,1.9-1.9,3.2-0.9
		c1.4,1.1,4.1,1.4,3,4.2c-1.8,5.1-3.7,10.1-5.6,15.1c-2.5,6.7-5.2,13.3-7.2,20.3c-0.2,0.9-1,2,0.1,2.7c1.1,0.7,2-0.3,2.7-1.1
		c1.7-1.9,3.3-3.8,5-5.7c0.5-0.6,1.1-1.5,1.9-0.7c0.7,0.7,2,1.4,1,2.8c-3,4.2-6,8.4-10.6,11.1c-2.6,1.5-5.5,2.9-8.2,0.9
		c-2.7-2-1.8-5.2-1.2-7.9C156.9,169.6,157.6,168,158.1,166.4z M139.9,166.5c-0.2,5.6,2.2,7,6.6,4.7c1.6-0.8,3-2,4.3-3.2
		c2-1.9,3.7-3.9,5.3-6.1c4.5-6.1,8.5-12.4,10.9-19.6c1.7-5.3-1.4-8.8-6.9-7.8c-3.4,0.6-6,2.5-8.3,4.9
		C144.6,147.2,140.8,156.6,139.9,166.5z"/>
	<path fill="#F8FBFC" d="M308.2,218.3c1.9,0.6,3.6,1.1,5.2,1.9c7.7,4.2,7.7,14.5,1.5,19.5c-4.1,3.3-9,4-14,4.2
		c-5.8,0.2-11.6,0.1-17.4,0c-0.9,0-2,0.4-2.1-1.2c0-1.4,0.8-1.5,1.9-1.6c3.2-0.3,4.2-0.8,4.2-4.7c0.2-10.8,0.6-21.7-0.2-32.5
		c-0.2-2.5-1.6-3.4-3.8-3.5c-1.1,0-1.7-0.3-1.6-1.6c0.1-1.2,0.7-1.3,1.6-1.3c7.9,0.2,15.8-0.4,23.7,0.4c4.8,0.5,8.6,3.8,9.3,7.7
		c0.9,5.1-1.1,9-5.8,11.5C309.9,217.6,309.2,217.9,308.2,218.3z M295.9,229.2C295.9,229.2,295.9,229.2,295.9,229.2
		c0,2.1,0,4.3,0,6.4c0.1,3.8,1.9,5.4,5.5,5c5.2-0.5,8-3.6,8.6-9.2c0.4-4.2-2.6-8.6-6.8-9.9c-1.8-0.6-3.7-0.6-5.6-0.7
		c-1.4-0.1-1.9,0.4-1.8,1.8C296,224.8,295.9,227,295.9,229.2z M295.9,209.5C295.9,209.5,295.9,209.5,295.9,209.5c0,2.1,0,4.2,0,6.3
		c0,1.2,0.2,1.9,1.6,1.7c0.6-0.1,1.3,0,2,0c5.8-0.1,9-3.9,8.3-10.1c-0.6-5.2-5.7-6.9-10-6.6c-1.1,0.1-1.9,0.6-1.8,2
		C296,205.1,295.9,207.3,295.9,209.5z"/>
	<path fill="#F8FBFC" d="M242.9,102.9c1.9,0,3.8,0,5.6,0c3.2,0,3.6,0.5,2.4,3.6c-4.4,11.4-8.8,22.8-13.1,34.2
		c-3.5,9.3-7.2,18.5-9.8,28.1c-0.3,1-0.9,2.2,0.3,2.9c1.1,0.6,2.1-0.3,2.8-1c1.9-1.9,3.8-3.8,5.7-5.8c0.5-0.5,0.9-1.5,1.7-0.6
		c0.7,0.8,2.1,1.6,1.2,2.8c-3.6,4.6-7.1,9.5-12.7,12c-2.4,1.1-5,1.3-7.2-0.4c-2.2-1.7-2.4-4.2-2-6.7c1.3-6.8,3.8-13.1,6.3-19.5
		c5-13.1,10.1-26.1,15.2-39.2c0.3-0.7,0.5-1.4,0.7-2.1c1.3-3.8,1-4.3-3.1-4.9c-1.3-0.2-3,0.1-2.4-2.2c0.2-1,0.5-1.4,1.5-1.4
		c1.1,0,2.3,0,3.4,0C240.6,102.9,241.8,102.9,242.9,102.9z"/>
	<path fill="#F8FBFC" d="M261.5,150.8c-2.1-0.9-3.4,1.2-4.7,3.5c-1.8,3.4-3.2,6.8-3.2,10.7c0,6.3,4.9,9.7,10.8,7.6
		c3.4-1.2,6.3-3.4,9.2-5.5c0.9-0.7,1.6-1.4,2.7-0.1c0.9,1.1,0.9,1.9-0.1,2.9c-5.1,4.9-10.6,9-17.8,10c-7.8,1.1-14.2-4.5-14.4-12.3
		c-0.3-10.3,4.4-18.3,11.1-25.6c4.2-4.6,9.2-8.3,15.1-10.6c3.3-1.2,6.6-1.9,10.1-1.1c3.4,0.7,6.1,2.5,7.1,6c0.9,3.4-0.5,6.1-2.9,8.3
		c-4.4,3.9-9.8,5.4-15.4,6.2C266.8,151.1,264.7,151.4,261.5,150.8z M261.4,146.8c5.8-0.3,11.1-0.6,15.5-4c2.7-2.1,3.6-5.5,2.1-7.7
		c-1.5-2.1-4.6-2.3-7.7-0.1C267.2,137.8,264.3,141.9,261.4,146.8z"/>
	<path fill="#F8FBFC" d="M52,163.1c-0.2,9.3,5.1,12.7,12,9.7c3.2-1.4,5.9-3.5,8.5-5.8c0.7-0.6,1.3-1.2,2.2-0.2
		c0.7,0.8,1.6,1.4,0.6,2.7c-5.7,6.7-12.5,11.3-21.8,10.2c-5.8-0.7-10.2-6.2-10.7-12.9c-0.7-11.1,4.3-19.7,12.2-26.9
		c5.8-5.3,12.4-9,20.4-9.9c5.9-0.7,10.3,1.9,11.7,6.6c0.6,1.9,0.1,3.5-1.5,4.5c-1.6,1-3.2,0.5-4.4-0.7c-1.2-1.2-2.3-2.6-3.5-3.8
		c-2.3-2.3-4.8-2.9-7.3-1.2C60,142.5,54.3,152.6,52,163.1z"/>
	<path fill="#F8FBFC" d="M269.3,243.9c-2.6,0-5.2,0-7.8,0c-0.9,0-1.6-0.1-1.6-1.3c0-1.1,0.6-1.3,1.5-1.5c3.1-0.6,3.4-1,2.3-4.1
		c-0.9-2.6-2-5.2-2.9-7.8c-0.4-1.3-1.1-1.6-2.4-1.5c-3.1,0.1-6.2,0.1-9.3,0c-1.3,0-1.9,0.4-2.3,1.6c-0.8,2.6-1.9,5.2-2.7,7.9
		c-0.8,2.7-0.2,3.5,2.6,3.9c0.9,0.1,2,0,2,1.5c0,1.7-1.2,1.3-2.1,1.3c-4.1,0-8.2,0-12.3,0c-0.7,0-1.7,0.4-1.8-1
		c-0.1-1.1,0.2-1.7,1.4-1.8c2.8-0.1,4.1-2,5.1-4.3c3.3-8.3,6.5-16.7,9.8-25c1.7-4.3,3.4-8.5,4.9-12.8c0.5-1.6,1.6-1.5,2.8-1.7
		c1.6-0.3,1.5,0.9,1.8,1.8c4.3,11.7,8.6,23.4,13,35.1c0.6,1.6,1.3,3.2,2.1,4.7c0.7,1.4,1.9,2.2,3.5,2.4c0.9,0.1,2,0,2,1.5
		c-0.1,1.8-1.4,1.2-2.3,1.2C274.2,244,271.8,243.9,269.3,243.9z M258.8,224c-1.8-4.9-3.4-9.5-5.2-14.6c-1.7,4.7-3.2,8.9-4.7,13.1
		c-0.3,0.9-0.5,1.5,0.9,1.5C252.7,223.9,255.6,224,258.8,224z"/>
	<path fill="#F8FBFC" d="M85.4,220.1c0.1,6.3,1.3,12.3,6,17c6.6,6.8,17.1,5.7,22.2-2.3c0.8-1.2,1.5-2.5,2.2-3.8
		c0.6-1.1,1.5-0.9,2.3-0.7c1.1,0.3,0.6,1.1,0.4,1.8c-0.9,3-1.7,6.1-2.7,9.1c-0.3,0.8-0.5,1.5-1.7,1.8c-7.4,1.9-14.8,2.8-22.3,0.4
		c-9-2.8-15.4-10.1-16.1-18.9c-0.8-10.3,2.5-18.8,11.8-24.2c8-4.6,16.5-4.6,25.3-2.8c2.8,0.6,3.5,1.8,3.6,4.4
		c0.1,2.2,0.5,4.3,0.8,6.5c0.1,0.6,0.5,1.6-0.7,1.7c-0.7,0-1.7,0.8-2.1-0.7c-1.8-6.5-6.3-9.7-12.8-9.4c-6.6,0.3-11.8,2.9-14.7,11.1
		C85.7,214,85.3,217,85.4,220.1z"/>
	<path fill="#F8FBFC" d="M70.7,230.3c0,8.4-6.1,14.3-14.8,14.7c-4.2,0.2-8-0.9-11.9-2.4c-0.8-0.3-1.2-0.8-1.3-1.6
		c-0.6-3-1.1-6.1-1.7-9.1c-0.3-1.1,0.5-1.3,1.1-1.5c0.8-0.3,1.5-0.4,2,0.6c0.9,2.3,2.1,4.4,3.7,6.3c2.4,2.7,5.4,4.7,9.2,4.1
		c5.8-1,7.9-8.4,3.9-13c-1.5-1.7-3.4-2.8-5.4-3.8c-2.6-1.3-5.1-2.6-7.4-4.3c-4.4-3.3-6.3-7.7-5.2-13.1c1.2-5.7,5.1-8.9,10.5-10.4
		c4.4-1.2,8.7-0.3,12.9,1.1c0.6,0.2,1.3,0.3,1.4,1.2c0.3,2.7,0.6,5.3,1,8c0.1,0.9,0.2,1.4-1,1.4c-0.8,0-1.7,0.5-2.1-0.9
		c-0.4-1.5-1.1-2.9-1.9-4.2c-1.8-2.6-4.3-4-7.5-3.6c-3.7,0.5-5.3,2.2-6,6c-0.5,2.5,0.6,4.4,2.3,6.1c2.1,2,4.7,3.2,7.3,4.3
		c4.8,2.1,9,4.9,10.5,10.4C70.8,228.2,70.6,229.4,70.7,230.3z"/>
	<path fill="#F8FBFC" d="M200.3,150.8c2.7-4.4,5.1-8.9,8.2-13c3-3.9,6.5-7.1,11.6-7.9c2.2-0.3,4.3-0.2,5.6,2c1,1.8,0.6,5-0.9,6.7
		c-1.5,1.7-3.4,1.8-5.1,0c-2.6-2.6-3.2-2.6-6.1-0.3c-3.2,2.6-5.3,6-7.2,9.5c-5.1,9.1-9.8,18.5-14,28c-1.2,2.8-4.3,4.1-7.1,3
		c-1.4-0.6-1-1.8-0.7-2.7c1-3,2.1-6,3.1-9c2.8-8.1,6-16,7.8-24.4c0.4-1.7,1.1-3.8-0.6-4.7c-1.6-0.9-2.8,1-3.9,2.1
		c-1.4,1.4-2.6,2.9-3.8,4.4c-0.5,0.6-1,1.2-1.8,0.4c-0.6-0.6-1.8-1.1-1-2.4c3.3-4.8,7.1-9.2,12.5-11.8c1.8-0.9,3.8-1.2,5.6,0.2
		c1.7,1.4,1.3,3.4,1,5.3C202.5,141.2,201.3,146,200.3,150.8z"/>
	<path fill="#F8FBFC" d="M310.1,129.9c1.9,0.1,3.2,0.3,4.4,0.8c2.4,1.1,3.5,3.1,2.9,5.3c-0.6,2.3-3,3.8-5.5,3.4
		c-1.4-0.2-2.6-0.8-3.9-1.4c-3.5-1.6-5.9-1.4-7.7,0.5c-1.9,2-2.3,5.5-0.5,8.4c1.7,2.9,3.8,5.5,5.6,8.3c4.9,7.4,3.7,14.5-3.3,20
		c-4.1,3.2-8.6,5.2-14,4.4c-2.1-0.3-3.9-1.2-5.5-2.4c-2.5-1.9-3.1-5.2-1.5-7.8c0.9-1.5,2.2-1.3,3.4-0.5c1.3,0.9,2.6,2,3.8,3.1
		c2.3,1.9,4.8,3,7.9,2.4c4.5-0.9,6.5-5,4.2-8.9c-1.5-2.6-3.5-4.9-5.3-7.4c-4-5.5-3.7-11.3-0.6-17
		C298.1,134.9,303.1,130.5,310.1,129.9z"/>
	<path fill="#009CDB" d="M98.3,146c-0.2,0.4-0.5,0.5-0.8,0.3c-0.4-0.3,0.2-0.5,0.3-0.7C98,145.7,98.1,145.9,98.3,146z"/>
	<path fill="#009CDB" d="M139.9,166.5c0.9-9.9,4.6-19.3,12-27.1c2.3-2.4,4.9-4.3,8.3-4.9c5.4-1,8.6,2.5,6.9,7.8
		c-2.3,7.2-6.4,13.5-10.9,19.6c-1.6,2.2-3.4,4.2-5.3,6.1c-1.3,1.2-2.7,2.4-4.3,3.2C142.1,173.5,139.8,172.1,139.9,166.5z"/>
	<path fill="#009CDB" d="M295.9,229.2c0-2.2,0.1-4.4,0-6.6c-0.1-1.4,0.5-1.8,1.8-1.8c1.9,0.1,3.7,0.1,5.6,0.7
		c4.2,1.3,7.3,5.7,6.8,9.9c-0.6,5.7-3.4,8.7-8.6,9.2c-3.7,0.4-5.5-1.2-5.5-5C295.9,233.5,295.9,231.3,295.9,229.2
		C295.9,229.2,295.9,229.2,295.9,229.2z"/>
	<path fill="#009CDB" d="M295.9,209.5c0-2.2,0.1-4.4,0-6.6c-0.1-1.4,0.7-1.9,1.8-2c4.3-0.4,9.4,1.3,10,6.6c0.7,6.1-2.5,9.9-8.3,10.1
		c-0.7,0-1.3-0.1-2,0c-1.4,0.2-1.6-0.5-1.6-1.7C296,213.8,295.9,211.6,295.9,209.5C295.9,209.5,295.9,209.5,295.9,209.5z"/>
	<path fill="#009CDB" d="M261.4,146.8c2.9-4.8,5.7-8.9,10-11.9c3.1-2.1,6.2-2,7.7,0.1c1.5,2.2,0.6,5.6-2.1,7.7
		C272.5,146.2,267.2,146.4,261.4,146.8z"/>
	<path fill="#009CDB" d="M258.8,224c-3.2,0-6.1,0-9,0c-1.4,0-1.2-0.6-0.9-1.5c1.5-4.2,3-8.4,4.7-13.1C255.4,214.4,257,219,258.8,224
		z"/>
</g>
</svg>
