<?xml version="1.0" encoding="utf-8"?>
<!-- Generator: Adobe Illustrator 18.1.1, SVG Export Plug-In . SVG Version: 6.00 Build 0)  -->
<svg version="1.1" xmlns="http://www.w3.org/2000/svg" xmlns:xlink="http://www.w3.org/1999/xlink" x="0px" y="0px"
	 viewBox="0 0 360 360" enable-background="new 0 0 360 360" xml:space="preserve">
<g id="Layer_1">
</g>
<g id="Layer_2">
	<g>
		<path fill="#00B624" d="M7.2,355.5c0-115.6,0-231.3,0-346.9c115.6,0,231.3,0,346.9,0c0,115.6,0,231.3,0,346.9
			C238.5,355.5,122.8,355.5,7.2,355.5z M196.3,126c-13.2,0-25.8-0.2-38.3,0.2c-1.3,0-3.6,3.3-3.6,5.1c-0.2,45.4-0.1,90.9-0.2,136.3
			c0,4,1.3,5.8,5.5,5.8c31-0.2,62,0.6,92.9-0.6c34.1-1.3,52.8-17.2,60.7-50.3c6.4-26.7,6.3-53.8,0.7-80.6
			c-5.4-26-20.3-43.9-47.5-49.1c-6.9-1.3-14.1-1.8-21.2-1.8c-60.3-0.1-120.7-0.1-181-0.1c-20.9,0-20.7,0-20.6,21
			c0,5.2,1.9,6.8,6.8,6.7c14.5-0.2,28.9-0.1,43.4,0c9,0,9,0,9,9.1c0,46.1,0.1,92.2-0.1,138.3c0,5.7,1.6,7.7,7.4,7.4
			c8.5-0.4,17-0.1,25.5-0.1c9.3,0,9.3,0,9.3-9.6c0-45.9,0-91.8,0-137.7c0-4.1-0.3-7.6,5.8-7.6c28.4,0.2,56.9-0.2,85.3,0.3
			c18,0.3,28,8.4,32.2,26.1c2.3,9.5,3.4,19.5,3.7,29.2c0.5,17.4,0.2,34.9-6.2,51.5c-4.8,12.3-13.7,19.4-27.1,19.8
			c-11.7,0.4-23.4,0-35.1,0.4c-5.7,0.2-7.5-1.8-7.4-7.5c0.2-34.4,0.1-68.8,0.1-103.2C196.3,132.4,196.3,129.7,196.3,126z"/>
		<path fill="#FFFFFF" d="M196.3,126c0,3.7,0,6.4,0,9.1c0,34.4,0.1,68.8-0.1,103.2c0,5.7,1.7,7.7,7.4,7.5c11.7-0.4,23.4,0,35.1-0.4
			c13.4-0.4,22.3-7.5,27.1-19.8c6.4-16.6,6.7-34.1,6.2-51.5c-0.3-9.8-1.5-19.7-3.7-29.2c-4.2-17.7-14.2-25.8-32.2-26.1
			c-28.4-0.4-56.9,0-85.3-0.3c-6.1,0-5.8,3.5-5.8,7.6c0,45.9,0,91.8,0,137.7c0,9.6,0,9.6-9.3,9.6c-8.5,0-17-0.3-25.5,0.1
			c-5.8,0.3-7.4-1.8-7.4-7.4c0.2-46.1,0.1-92.2,0.1-138.3c0-9,0-9.1-9-9.1c-14.5,0-28.9-0.1-43.4,0c-4.9,0.1-6.7-1.5-6.8-6.7
			c-0.2-21-0.3-21,20.6-21c60.3,0,120.7-0.1,181,0.1c7.1,0,14.3,0.5,21.2,1.8c27.2,5.2,42,23.2,47.5,49.1
			c5.6,26.8,5.6,53.9-0.7,80.6c-7.9,33.1-26.5,49-60.7,50.3c-30.9,1.2-61.9,0.4-92.9,0.6c-4.3,0-5.5-1.8-5.5-5.8
			c0.1-45.4,0-90.9,0.2-136.3c0-1.8,2.3-5,3.6-5.1C170.5,125.8,183.1,126,196.3,126z"/>
	</g>
</g>
</svg>
