<?xml version="1.0" encoding="utf-8"?>
<!-- Generator: Adobe Illustrator 19.0.0, SVG Export Plug-In . SVG Version: 6.00 Build 0)  -->
<!DOCTYPE svg PUBLIC "-//W3C//DTD SVG 1.1//EN" "http://www.w3.org/Graphics/SVG/1.1/DTD/svg11.dtd">
<svg version="1.1" id="Layer_1" xmlns="http://www.w3.org/2000/svg" xmlns:xlink="http://www.w3.org/1999/xlink" x="0px" y="0px"
	 viewBox="0 0 360 360" enable-background="new 0 0 360 360" xml:space="preserve">
<g>
	<path fill="none" stroke="#231F20" stroke-width="2" stroke-miterlimit="10" d="M7.5,354.9c0-115.6,0-231.3,0-346.9
		c115.6,0,231.3,0,346.9,0c0,115.6,0,231.3,0,346.9C238.8,354.9,123.1,354.9,7.5,354.9z M287.8,180c0-59.2-47.8-107.3-106.5-107.3
		c-58.6,0-106.5,48.3-106.5,107.4c0,58.5,47.4,105.7,106.2,105.8C240.2,286.1,287.8,238.8,287.8,180z"/>
	<path fill="none" stroke="#231F20" stroke-width="2" stroke-miterlimit="10" d="M287.8,180c0,58.8-47.6,106-106.8,105.9
		c-58.8-0.2-106.2-47.4-106.2-105.8c0-59.1,47.9-107.4,106.5-107.4C240,72.7,287.8,120.9,287.8,180z M245.2,257.5
		c35-26.5,46.5-79.2,27.2-120.6c-20.1-43.2-67.3-66.4-113.6-55.9c-46.5,10.5-78.6,52.1-78.1,101c0.5,39.2,31.1,83.4,62.6,89.8
		c1-2.7,2.1-5.5,3-8.3c5.5-17.5,11.2-34.9,16.4-52.5c1.3-4.5,3.4-6.3,8.2-6.1c11.2,0.3,22.5,0.1,33.7,0.1c1.6,0,3.2-0.4,6.7-0.8
		c-15.1-9.2-30.1-2.2-44.8-6c3.8-12.7,7.6-25.3,11.4-37.9c-0.4-0.1-0.7-0.2-1.1-0.4c-6.4,10.3-12.7,20.6-19.2,31.1
		c1.8,1.7,3.4,3.2,4.7,4.5c-3.7,1.6-8.8,2.2-9.9,4.6c-5,10.8-14.4,15.5-24.1,20.3c-7.3,3.6-14.4,7.5-21.5,11.3
		c-0.3-0.5-0.6-0.9-0.9-1.4c14.7-12.6,29.4-25.2,44-37.7c-0.2-0.4-0.4-0.8-0.6-1.3c-18.6,2.1-37.1,4.2-55.7,6.4
		c-0.1-0.5-0.2-1-0.3-1.6c18.1-5.4,36.3-10.8,56.2-16.7c-20-5.9-38.2-11.4-56.5-16.8c0.1-0.5,0.2-1.1,0.4-1.6
		c18.8,1.9,37.6,3.9,58.3,6c-16.3-13.5-30.9-25.6-45.5-37.6c0.3-0.4,0.7-0.9,1-1.3c16.4,9,32.7,18,49.1,26.9c0.3-0.3,0.7-0.6,1-0.9
		c-8.4-16.1-16.7-32.2-25.1-48.3c0.6-0.3,1.1-0.6,1.7-0.9c11.1,14.5,22.2,29.1,33.3,43.6c0.4-0.3,0.9-0.5,1.3-0.8
		c-1.3-19.3-2.6-38.7-3.9-58c0.6-0.1,1.1-0.1,1.7-0.2c4.9,18.8,9.7,37.5,14.6,56.3c0.4,0,0.9,0,1.3,0.1c5.7-18.4,11.3-36.8,17-55.1
		c0.5,0.1,1.1,0.2,1.6,0.4c-2.3,19-4.6,37.9-7.2,58.9c13.5-16,25.6-30.2,37.7-44.5c0.5,0.3,0.9,0.6,1.4,0.9
		c-9.2,16.4-18.5,32.9-27.7,49.3c0.4,0.3,0.8,0.6,1.2,0.8c16.7-8.5,33.3-16.9,50-25.4c0.3,0.5,0.6,1,0.9,1.5
		c-14.8,11.3-29.6,22.5-44.5,33.8c0.2,0.4,0.4,0.8,0.6,1.2c18.8-1.2,37.7-2.4,56.5-3.7c0.1,0.6,0.1,1.1,0.2,1.7
		c-18.4,4.5-36.9,9.1-57.3,14.1c20.1,7.1,38.2,13.6,56.3,20c-0.2,0.5-0.3,1.1-0.5,1.6c-19.1-2.9-38.1-5.8-57.2-8.7
		c-0.2,0.4-0.4,0.8-0.5,1.2c14.8,12.8,29.5,25.7,44.3,38.5c-0.3,0.5-0.6,1-1,1.4c-10.6-5.9-21.2-11.8-31.8-17.7
		c-0.3,0.3-0.6,0.7-0.9,1C229.2,230.4,237,243.7,245.2,257.5z"/>
	<path fill="none" stroke="#231F20" stroke-width="2" stroke-miterlimit="10" d="M245.2,257.5c-8.2-13.8-16-27.1-23.9-40.3
		c0.3-0.3,0.6-0.7,0.9-1c10.6,5.9,21.2,11.8,31.8,17.7c0.3-0.5,0.6-1,1-1.4c-14.8-12.8-29.5-25.7-44.3-38.5c0.2-0.4,0.4-0.8,0.5-1.2
		c19.1,2.9,38.1,5.8,57.2,8.7c0.2-0.5,0.3-1.1,0.5-1.6c-18.1-6.4-36.1-12.8-56.3-20c20.4-5,38.9-9.5,57.3-14.1
		c-0.1-0.6-0.1-1.1-0.2-1.7c-18.8,1.2-37.7,2.4-56.5,3.7c-0.2-0.4-0.4-0.8-0.6-1.2c14.8-11.3,29.6-22.5,44.5-33.8
		c-0.3-0.5-0.6-1-0.9-1.5c-16.7,8.5-33.3,16.9-50,25.4c-0.4-0.3-0.8-0.6-1.2-0.8c9.2-16.4,18.5-32.9,27.7-49.3
		c-0.5-0.3-0.9-0.6-1.4-0.9c-12.1,14.2-24.1,28.5-37.7,44.5c2.6-21,4.9-39.9,7.2-58.9c-0.5-0.1-1.1-0.2-1.6-0.4
		c-5.7,18.4-11.3,36.8-17,55.1c-0.4,0-0.9,0-1.3-0.1c-4.9-18.8-9.7-37.5-14.6-56.3c-0.6,0.1-1.1,0.1-1.7,0.2
		c1.3,19.3,2.6,38.7,3.9,58c-0.4,0.3-0.9,0.5-1.3,0.8c-11.1-14.5-22.2-29.1-33.3-43.6c-0.6,0.3-1.1,0.6-1.7,0.9
		c8.4,16.1,16.7,32.2,25.1,48.3c-0.3,0.3-0.7,0.6-1,0.9c-16.4-9-32.7-18-49.1-26.9c-0.3,0.4-0.7,0.9-1,1.3
		c14.6,12.1,29.2,24.2,45.5,37.6c-20.7-2.1-39.5-4.1-58.3-6c-0.1,0.5-0.2,1.1-0.4,1.6c18.2,5.4,36.5,10.9,56.5,16.8
		c-19.9,5.9-38.1,11.3-56.2,16.7c0.1,0.5,0.2,1,0.3,1.6c18.6-2.1,37.1-4.2,55.7-6.4c0.2,0.4,0.4,0.8,0.6,1.3
		c-14.7,12.6-29.4,25.2-44,37.7c0.3,0.5,0.6,0.9,0.9,1.4c7.2-3.8,14.3-7.7,21.5-11.3c9.7-4.8,19.1-9.5,24.1-20.3
		c1.1-2.4,6.3-3,9.9-4.6c-1.3-1.2-2.9-2.7-4.7-4.5c6.5-10.5,12.9-20.8,19.2-31.1c0.4,0.1,0.7,0.2,1.1,0.4
		c-3.8,12.6-7.6,25.1-11.4,37.9c14.6,3.8,29.7-3.2,44.8,6c-3.5,0.4-5.1,0.8-6.7,0.8c-11.2,0-22.5,0.2-33.7-0.1
		c-4.8-0.1-6.8,1.6-8.2,6.1c-5.3,17.6-10.9,35-16.4,52.5c-0.9,2.8-2,5.6-3,8.3c-31.5-6.4-62.1-50.6-62.6-89.8
		c-0.6-48.9,31.6-90.6,78.1-101c46.3-10.5,93.5,12.8,113.6,55.9C291.7,178.3,280.2,231,245.2,257.5z"/>
</g>
</svg>
